<svg width="119" height="126" viewBox="0 0 119 126" fill="none" xmlns="http://www.w3.org/2000/svg">
<path fill-rule="evenodd" clip-rule="evenodd" d="M83.927 0.339086C95.9348 -1.77814 107.385 6.23939 109.502 18.2467L117.881 65.7685C118.898 71.5347 117.582 77.4685 114.224 82.2646L96.0616 108.203C92.7033 112.999 87.5776 116.265 81.8114 117.282L34.2897 125.661C22.2822 127.778 10.832 119.76 8.7148 107.754L0.335518 60.2315C-0.681258 54.4654 0.634214 48.5316 3.99258 43.7354L22.1547 17.797C25.5132 13.0009 30.6392 9.73518 36.4054 8.71844L83.927 0.339086ZM98.4943 82.9558C105.699 81.6855 110.51 74.8154 109.24 67.6109L100.805 19.7801C99.535 12.5757 92.6647 7.76527 85.4608 9.03554L37.6297 17.4695C30.4254 18.7398 25.6148 25.6099 26.8851 32.8143L35.3189 80.645C36.5894 87.8497 43.4596 92.6596 50.6638 91.3895L98.4943 82.9558Z" fill="#6968F4"/>
<path d="M79.2578 22.2684C76.6824 22.7685 74.9981 25.2646 75.4983 27.84L83.1091 67.0309C83.6092 69.6063 86.1053 71.2906 88.6807 70.7904L90.547 70.428C93.1224 69.9279 94.8066 67.4318 94.3065 64.8564L86.6957 25.6655C86.195 23.0876 83.6994 21.4058 81.124 21.9059L79.2578 22.2684ZM60.8767 42.2992C60.3761 39.7213 62.0608 37.2277 64.6362 36.7276L66.5024 36.3651C69.0803 35.8645 71.5739 37.5493 72.0741 40.1247L77.5104 68.1182C78.0105 70.6936 76.3263 73.1897 73.7509 73.6898L71.8846 74.0522C70.6472 74.2925 69.3651 74.0314 68.3202 73.3264C67.2753 72.6213 66.5533 71.5301 66.313 70.2927L60.8767 42.2992ZM46.2551 56.7584C45.7545 54.1805 47.4392 51.6869 50.0146 51.1868L51.8809 50.8243C54.4588 50.3237 56.9524 52.0085 57.4525 54.5839L60.7143 71.38C61.2144 73.9554 59.5302 76.4515 56.9548 76.9516L55.0885 77.314C53.8511 77.5543 52.569 77.2932 51.5241 76.5882C50.4792 75.8831 49.7572 74.7919 49.5169 73.5545L46.2551 56.7584Z" fill="#6968F4"/>
</svg>
